<svg width="20" height="20" viewBox="0 0 20 20" fill="none" xmlns="http://www.w3.org/2000/svg">
<path d="M6.95983 16.868C7.66073 17.759 8.76182 18.3332 10 18.3332C11.2382 18.3332 12.3393 17.759 13.0402 16.868C11.022 17.1415 8.97798 17.1415 6.95983 16.868Z" fill="#A1A1A1"/>
<path d="M15.6243 7.49984V8.08659C15.6243 8.79075 15.8252 9.47915 16.2018 10.065L17.1247 11.5008C17.9676 12.8122 17.3241 14.5948 15.858 15.0095C12.0227 16.0943 7.97728 16.0943 4.14197 15.0095C2.67587 14.5948 2.03235 12.8122 2.8753 11.5008L3.79816 10.065C4.17476 9.47915 4.37573 8.79075 4.37573 8.08659V7.49984C4.37573 4.27818 6.8938 1.6665 10 1.6665C13.1062 1.6665 15.6243 4.27818 15.6243 7.49984Z" fill="#A1A1A1"/>
</svg>
