<svg width="20" height="20" viewBox="0 0 24 25" fill="none" xmlns="http://www.w3.org/2000/svg">
<g clip-path="url(#clip0_305_11727)">
<path d="M18.3002 6.2107C17.9102 5.8207 17.2802 5.8207 16.8902 6.2107L12.0002 11.0907L7.11022 6.2007C6.72022 5.8107 6.09021 5.8107 5.70021 6.2007C5.31021 6.5907 5.31021 7.2207 5.70021 7.6107L10.5902 12.5007L5.70021 17.3907C5.31021 17.7807 5.31021 18.4107 5.70021 18.8007C6.09021 19.1907 6.72022 19.1907 7.11022 18.8007L12.0002 13.9107L16.8902 18.8007C17.2802 19.1907 17.9102 19.1907 18.3002 18.8007C18.6902 18.4107 18.6902 17.7807 18.3002 17.3907L13.4102 12.5007L18.3002 7.6107C18.6802 7.2307 18.6802 6.5907 18.3002 6.2107Z" fill="#1B1B1B"/>
</g>
<defs>
<clipPath id="clip0_305_11727">
<rect width="20" height="20" fill="white" transform="translate(0 0.5)"/>
</clipPath>
</defs>
</svg>
