<svg width="19" height="19" viewBox="0 0 19 19" fill="none" xmlns="http://www.w3.org/2000/svg">
<path d="M14.621 17.8126C14.496 17.8131 14.3741 17.7741 14.2725 17.7013L9.4999 14.2412L4.72727 17.7013C4.6253 17.7752 4.50246 17.8148 4.3765 17.8144C4.25054 17.8139 4.12799 17.7734 4.02657 17.6987C3.92514 17.624 3.8501 17.519 3.81229 17.3988C3.77448 17.2787 3.77586 17.1496 3.81623 17.0303L5.67764 11.517L0.85342 8.20867C0.748924 8.13709 0.670057 8.03397 0.628341 7.91438C0.586625 7.79478 0.584248 7.66498 0.621555 7.54394C0.658863 7.4229 0.7339 7.31696 0.835705 7.2416C0.937509 7.16624 1.06074 7.12541 1.1874 7.12508H7.13901L8.9351 1.59764C8.97379 1.4783 9.04929 1.37429 9.15076 1.30052C9.25223 1.22675 9.37445 1.18701 9.4999 1.18701C9.62536 1.18701 9.74758 1.22675 9.84905 1.30052C9.95052 1.37429 10.026 1.4783 10.0647 1.59764L11.8608 7.12693H17.8124C17.9392 7.12687 18.0627 7.16742 18.1648 7.24263C18.2669 7.31784 18.3423 7.42378 18.3798 7.54491C18.4174 7.66605 18.4151 7.79602 18.3735 7.91579C18.3318 8.03557 18.2529 8.13886 18.1482 8.21053L13.3222 11.517L15.1825 17.0288C15.2126 17.1181 15.2211 17.2132 15.2072 17.3064C15.1933 17.3995 15.1575 17.488 15.1026 17.5646C15.0478 17.6412 14.9755 17.7036 14.8917 17.7467C14.808 17.7898 14.7152 17.8124 14.621 17.8126Z" fill="#FFC23D"/>
</svg>
